<svg width="67" height="67" viewBox="0 0 67 67" fill="none" xmlns="http://www.w3.org/2000/svg">
<path fill-rule="evenodd" clip-rule="evenodd" d="M4.40674 35.6035C4.40674 18.3739 18.3741 4.40659 35.6036 4.40659C43.8775 4.40659 51.8126 7.69339 57.6631 13.5439C63.5136 19.3945 66.8004 27.3295 66.8004 35.6035C66.8004 52.833 52.8331 66.8003 35.6036 66.8003C18.3741 66.8003 4.40674 52.833 4.40674 35.6035Z" fill="#FFC588"/>
<path fill-rule="evenodd" clip-rule="evenodd" d="M1 32.1968C1 14.9673 14.9673 1 32.1968 1C40.4708 1 48.4058 4.2868 54.2563 10.1373C60.1069 15.9879 63.3937 23.9229 63.3937 32.1968C63.3937 49.4264 49.4264 63.3937 32.1968 63.3937C14.9673 63.3937 1 49.4264 1 32.1968Z" stroke="#2A2D32" stroke-width="2" stroke-miterlimit="10" stroke-linejoin="round" stroke-dasharray="2 6"/>
<path fill-rule="evenodd" clip-rule="evenodd" d="M32.1984 14.9334C36.9684 14.9334 40.8495 18.8145 40.8495 23.5846V24.1956H39.6274V23.5846C39.6274 23.2883 39.383 23.0475 39.0867 23.0475C38.7941 23.0475 38.5497 23.2883 38.5497 23.5846V24.1956H25.847V23.5846C25.847 23.2883 25.6063 23.0475 25.31 23.0475C25.01 23.0475 24.773 23.2883 24.773 23.5846V24.1956H23.5509V23.5846C23.5509 18.8145 27.4321 14.9334 32.1984 14.9334ZM22.4732 25.2696V27.0658H21.2881C21.2696 27.0658 21.2511 27.0509 21.2511 27.0287V25.3066C21.2511 25.2844 21.2696 25.2696 21.2881 25.2696H22.4732ZM43.1049 25.2696C43.1308 25.2696 43.1456 25.2844 43.1456 25.3066V27.0287C43.1456 27.0509 43.1308 27.0658 43.1049 27.0658H41.9235V25.2696H43.1049ZM40.8495 25.2696V39.087C40.8495 40.6906 39.5422 41.9942 37.9387 41.9942H26.4581C24.8545 41.9942 23.5509 40.6906 23.5509 39.087V25.2696H40.8495ZM24.6989 42.6571C25.0767 42.846 25.4878 42.9719 25.9211 43.0312V44.2903H24.6989V42.6571ZM39.6978 42.6571V44.2903H38.4756V43.0312C38.9089 42.9719 39.3237 42.846 39.6978 42.6571ZM32.1984 13.8594C26.8358 13.8594 22.4732 18.222 22.4732 23.5846V24.1956H21.2881C20.677 24.1956 20.1771 24.6919 20.1771 25.3066V27.0287C20.1771 27.6435 20.677 28.1397 21.2881 28.1397H22.4732V37.8279L19.3882 38.9167C17.7995 39.4759 16.7329 40.9869 16.7329 42.6719V49.9973C16.7329 50.2935 16.9736 50.5343 17.2699 50.5343C17.5662 50.5343 17.8069 50.2935 17.8069 49.9973V42.6719C17.8069 41.4424 18.5846 40.3388 19.7475 39.9314L22.4732 38.9685V39.087C22.4732 40.1758 22.9139 41.1609 23.625 41.8794V44.5866C22.9398 44.9755 22.4732 45.7087 22.4732 46.5531V49.9973C22.4732 50.2935 22.7139 50.5343 23.0139 50.5343C23.3065 50.5343 23.5509 50.2935 23.5509 49.9973V46.5531C23.5509 45.8976 24.0805 45.3643 24.7323 45.3643H34.4945C34.7945 45.3643 35.0315 45.1273 35.0315 44.8273C35.0315 44.5311 34.7945 44.2903 34.4945 44.2903H26.9951V43.0682H37.4016V44.2903H36.7906C36.4943 44.2903 36.2536 44.5311 36.2536 44.8273C36.2536 45.1273 36.4943 45.3643 36.7906 45.3643H39.6644C40.3162 45.3643 40.8495 45.8976 40.8495 46.5531V49.9973C40.8495 50.2935 41.0902 50.5343 41.3865 50.5343C41.6791 50.5343 41.9235 50.2935 41.9235 49.9973V46.5531C41.9235 45.7087 41.4606 44.9755 40.7755 44.5866V41.8794C41.4828 41.1609 41.9235 40.1758 41.9235 39.087V38.9685L44.6492 39.9314C45.8084 40.3388 46.5898 41.4424 46.5898 42.6719V49.9973C46.5898 50.2935 46.8305 50.5343 47.1268 50.5343C47.4231 50.5343 47.6638 50.2935 47.6638 49.9973V42.6719C47.6638 40.9869 46.5972 39.4759 45.0085 38.9167L41.9235 37.8279V28.1397H43.1049C43.7197 28.1397 44.2196 27.6435 44.2196 27.0287V25.3066C44.2196 24.6919 43.7197 24.1956 43.1049 24.1956H41.9235V23.5846C41.9235 18.222 37.5609 13.8594 32.1984 13.8594Z" fill="#2A2D32"/>
<path fill-rule="evenodd" clip-rule="evenodd" d="M25.3101 46.5864C25.0102 46.5864 24.7769 46.8308 24.7769 47.1234C24.7769 47.4234 25.0176 47.6604 25.3138 47.6604C25.6101 47.6604 25.8508 47.4234 25.8508 47.1234C25.8508 46.8308 25.6101 46.5864 25.3138 46.5864H25.3101Z" fill="#2A2D32"/>
<path fill-rule="evenodd" clip-rule="evenodd" d="M39.0829 46.5864C38.7866 46.5864 38.5459 46.8308 38.5459 47.1234C38.5459 47.4234 38.794 47.6604 39.0866 47.6604C39.3828 47.6604 39.6273 47.4234 39.6273 47.1234C39.6273 46.8308 39.3828 46.5864 39.0866 46.5864H39.0829Z" fill="#2A2D32"/>
<path fill-rule="evenodd" clip-rule="evenodd" d="M25.8803 26.4917C25.2692 26.4917 24.7729 26.9917 24.7729 27.6027V31.0469C24.7729 31.6617 25.2692 32.1579 25.8803 32.1579H38.5163C39.1274 32.1579 39.6273 31.6617 39.6273 31.0469V27.6027C39.6273 26.9917 39.1274 26.4917 38.5163 26.4917H28.7541C28.4542 26.4917 28.2171 26.7324 28.2171 27.0287C28.2171 27.325 28.4542 27.5694 28.7541 27.5694H38.5163C38.5348 27.5694 38.5497 27.5842 38.5497 27.6027V31.0469C38.5497 31.0691 38.5348 31.0876 38.5163 31.0876H25.8803C25.8618 31.0876 25.847 31.0691 25.847 31.0469V27.6027C25.847 27.5842 25.8618 27.5694 25.8803 27.5694H26.458C26.7543 27.5694 26.995 27.325 26.995 27.0287C26.995 26.7324 26.7543 26.4917 26.458 26.4917H25.8803Z" fill="#2A2D32"/>
<path fill-rule="evenodd" clip-rule="evenodd" d="M27.6059 28.7916C27.3059 28.7916 27.0688 29.0286 27.0688 29.3286C27.0688 29.6211 27.3059 29.8618 27.6059 29.8618H36.7903C37.0903 29.8618 37.3273 29.6211 37.3273 29.3286C37.3273 29.0286 37.0903 28.7916 36.7903 28.7916H27.6059Z" fill="#2A2D32"/>
</svg>
