<svg width="155" height="209" viewBox="0 0 155 209" fill="none" xmlns="http://www.w3.org/2000/svg">
<path fill-rule="evenodd" clip-rule="evenodd" d="M10.5008 96.8658C10.0587 96.8658 9.74121 97.181 9.74121 97.6254C9.74121 98.0041 10.0587 98.3215 10.5008 98.3215H12.4621C12.9042 98.3215 13.2217 98.0041 13.2217 97.6254C13.2217 97.181 12.9042 96.8658 12.4621 96.8658H10.5008Z" fill="#2A2D32"/>
<path fill-rule="evenodd" clip-rule="evenodd" d="M15.6883 96.8658C15.2439 96.8658 14.9287 97.181 14.9287 97.6254C14.9287 98.0041 15.2439 98.3215 15.6883 98.3215H18.9125C19.2935 98.3215 19.6086 98.0041 19.6086 97.6254C19.6086 97.181 19.2935 96.8658 18.9125 96.8658H15.6883ZM22.0756 96.8658C21.697 96.8658 21.3183 97.181 21.3183 97.6254C21.3183 98.0041 21.697 98.3215 22.0756 98.3215H25.3021C25.683 98.3215 25.9982 98.0041 25.9982 97.6254C25.9982 97.181 25.683 96.8658 25.3021 96.8658H22.0756Z" fill="#2A2D32"/>
<path fill-rule="evenodd" clip-rule="evenodd" d="M28.4651 96.8658C28.0865 96.8658 27.769 97.181 27.769 97.6254C27.769 98.0041 28.0865 98.3215 28.4651 98.3215H30.4899C30.8686 98.3215 31.2495 98.0041 31.2495 97.6254C31.2495 97.181 30.8686 96.8658 30.4899 96.8658H28.4651Z" fill="#2A2D32"/>
<path fill-rule="evenodd" clip-rule="evenodd" d="M105.262 206.81C104.881 206.81 104.566 207.125 104.566 207.567C104.566 207.948 104.881 208.327 105.262 208.327H107.285C107.665 208.327 108.044 207.948 108.044 207.567C108.044 207.125 107.665 206.81 107.285 206.81H105.262Z" fill="#F99615"/>
<path fill-rule="evenodd" clip-rule="evenodd" d="M110.511 206.81C110.069 206.81 109.754 207.125 109.754 207.567C109.754 207.948 110.069 208.327 110.511 208.327H113.674C114.119 208.327 114.434 207.948 114.434 207.567C114.434 207.125 114.119 206.81 113.674 206.81H110.511ZM116.901 206.81C116.459 206.81 116.141 207.125 116.141 207.567C116.141 207.948 116.459 208.327 116.901 208.327H120.064C120.506 208.327 120.823 207.948 120.823 207.567C120.823 207.125 120.506 206.81 120.064 206.81H116.901Z" fill="#F99615"/>
<path fill-rule="evenodd" clip-rule="evenodd" d="M123.29 206.81C122.911 206.81 122.53 207.125 122.53 207.567C122.53 207.948 122.911 208.327 123.29 208.327H125.315C125.693 208.327 126.011 207.948 126.011 207.567C126.011 207.125 125.693 206.81 125.315 206.81H123.29Z" fill="#F99615"/>
<path fill-rule="evenodd" clip-rule="evenodd" d="M33.6531 205.86C33.2745 205.86 32.957 206.177 32.957 206.62C32.957 206.998 33.2745 207.316 33.6531 207.316H36.4352C36.8162 207.316 37.1313 206.998 37.1313 206.62C37.1313 206.177 36.8162 205.86 36.4352 205.86H33.6531Z" fill="#2A2D32"/>
<path fill-rule="evenodd" clip-rule="evenodd" d="M40.802 205.86C40.4211 205.86 40.0425 206.177 40.0425 206.62C40.0425 206.998 40.4211 207.316 40.802 207.316H45.1668C45.6089 207.316 45.9241 206.998 45.9241 206.62C45.9241 206.177 45.6089 205.86 45.1668 205.86H40.802ZM49.5928 205.86C49.1506 205.86 48.8354 206.177 48.8354 206.62C48.8354 206.998 49.1506 207.316 49.5928 207.316H53.9598C54.3384 207.316 54.7171 206.998 54.7171 206.62C54.7171 206.177 54.3384 205.86 53.9598 205.86H49.5928Z" fill="#2A2D32"/>
<path fill-rule="evenodd" clip-rule="evenodd" d="M58.3245 205.86C57.9436 205.86 57.6284 206.177 57.6284 206.62C57.6284 206.998 57.9436 207.316 58.3245 207.316H61.1066C61.4875 207.316 61.8027 206.998 61.8027 206.62C61.8027 206.177 61.4875 205.86 61.1066 205.86H58.3245Z" fill="#2A2D32"/>
<path fill-rule="evenodd" clip-rule="evenodd" d="M126.011 57.1386C125.63 57.1386 125.315 57.5195 125.315 57.8982C125.315 58.2769 125.63 58.6578 126.011 58.6578H128.73C129.174 58.6578 129.489 58.2769 129.489 57.8982C129.489 57.5195 129.174 57.1386 128.73 57.1386H126.011Z" fill="#2A2D32"/>
<path fill-rule="evenodd" clip-rule="evenodd" d="M133.158 57.1386C132.716 57.1386 132.398 57.5195 132.398 57.8982C132.398 58.2769 132.716 58.6578 133.158 58.6578H137.523C137.965 58.6578 138.282 58.2769 138.282 57.8982C138.282 57.5195 137.965 57.1386 137.523 57.1386H133.158ZM141.888 57.1386C141.509 57.1386 141.191 57.5195 141.191 57.8982C141.191 58.2769 141.509 58.6578 141.888 58.6578H146.316C146.697 58.6578 147.012 58.2769 147.012 57.8982C147.012 57.5195 146.697 57.1386 146.316 57.1386H141.888Z" fill="#2A2D32"/>
<path fill-rule="evenodd" clip-rule="evenodd" d="M150.68 57.1386C150.302 57.1386 149.921 57.5195 149.921 57.8982C149.921 58.2769 150.302 58.6578 150.68 58.6578H153.401C153.844 58.6578 154.161 58.2769 154.161 57.8982C154.161 57.5195 153.844 57.1386 153.401 57.1386H150.68Z" fill="#2A2D32"/>
<path fill-rule="evenodd" clip-rule="evenodd" d="M118.166 93.6393C117.787 93.6393 117.406 93.9567 117.406 94.3989C117.406 94.7775 117.787 95.0949 118.166 95.0949H120.887C121.329 95.0949 121.646 94.7775 121.646 94.3989C121.646 93.9567 121.329 93.6393 120.887 93.6393H118.166Z" fill="#FFC588"/>
<path fill-rule="evenodd" clip-rule="evenodd" d="M125.315 93.6393C124.871 93.6393 124.556 93.9567 124.556 94.3989C124.556 94.7775 124.871 95.0949 125.315 95.0949H129.68C130.059 95.0949 130.44 94.7775 130.44 94.3989C130.44 93.9567 130.059 93.6393 129.68 93.6393H125.315ZM134.045 93.6393C133.664 93.6393 133.349 93.9567 133.349 94.3989C133.349 94.7775 133.664 95.0949 134.045 95.0949H138.473C138.852 95.0949 139.169 94.7775 139.169 94.3989C139.169 93.9567 138.852 93.6393 138.473 93.6393H134.045Z" fill="#FFC588"/>
<path fill-rule="evenodd" clip-rule="evenodd" d="M142.838 93.6393C142.393 93.6393 142.078 93.9567 142.078 94.3989C142.078 94.7775 142.393 95.0949 142.838 95.0949H145.556C146.001 95.0949 146.316 94.7775 146.316 94.3989C146.316 93.9567 146.001 93.6393 145.556 93.6393H142.838Z" fill="#FFC588"/>
<path fill-rule="evenodd" clip-rule="evenodd" d="M76.6044 23.5493C56.3633 23.5493 39.979 39.997 39.979 60.2381L42.319 59.4173L42.3824 59.3539H42.5095L43.9628 58.8482L82.7422 44.9944L89.2565 54.2295L95.0135 48.4726L108.804 57.3925L109.627 57.8982L113.232 60.2381C113.232 39.997 96.8478 23.5493 76.6044 23.5493Z" fill="#F99615"/>
<path fill-rule="evenodd" clip-rule="evenodd" d="M97.1016 101.231C91.4082 107.684 84.3225 111.921 76.6043 111.921C68.8883 111.921 61.7392 107.747 56.1727 101.294V117.994H45.5454C32.3876 117.994 20.8102 123.75 12.9038 132.859C13.4094 132.797 13.8516 132.67 14.3595 132.67C14.9286 132.607 15.4343 132.543 15.9399 132.543H29.6668V154.685H71.6705L76.6678 136.149L81.477 154.685H144.103C144.545 154.685 144.987 154.748 145.431 154.809C145.683 154.809 145.81 154.873 146.064 154.936C146.443 155 146.821 155.127 147.202 155.254C147.454 155.381 147.644 155.381 147.835 155.505C147.835 155.505 147.898 155.505 147.898 155.569C148.15 155.696 148.404 155.823 148.656 155.95C148.973 156.138 149.227 156.329 149.479 156.519C149.984 156.898 150.429 157.279 150.871 157.721C149.037 135.706 130.564 117.994 107.665 117.994H97.1016V101.231Z" fill="#00BAC3"/>
<path fill-rule="evenodd" clip-rule="evenodd" d="M76.6678 136.149L71.6704 154.685H81.4769L76.6678 136.149Z" fill="#F99615"/>
<path fill-rule="evenodd" clip-rule="evenodd" d="M15.9399 132.607C15.4343 132.607 14.9286 132.607 14.3595 132.67C6.70471 133.43 0.693848 139.881 0.693848 147.662V191.754H29.6667V132.607H15.9399Z" fill="#FFC588"/>
<path fill-rule="evenodd" clip-rule="evenodd" d="M153.148 163.414C152.96 171.575 146.189 178.089 137.904 178.089H124.238V191.754H153.148V163.414Z" fill="#FFC588"/>
<path fill-rule="evenodd" clip-rule="evenodd" d="M48.3911 118.12V145.511L76.6044 136.403L56.1729 118.12H48.3911Z" fill="#F99615"/>
<path fill-rule="evenodd" clip-rule="evenodd" d="M97.1018 118.12L76.668 136.403L104.881 145.511V118.12H97.1018Z" fill="#F99615"/>
<path fill-rule="evenodd" clip-rule="evenodd" d="M82.7421 44.9944L43.9627 58.8482L42.5093 59.3539H42.3823L42.3188 59.4173L43.1419 66.9451C43.1419 69.6003 43.4571 72.3211 43.9015 75.042C43.9627 75.042 43.9627 75.042 43.9627 75.1055C44.5953 78.9012 45.6724 82.6333 47.1257 86.2385C48.8354 90.6032 51.0484 94.6505 53.7057 98.258C54.4653 99.2692 55.2861 100.28 56.1727 101.294C61.7392 107.747 68.8883 111.921 76.6043 111.921C84.3225 111.921 91.4717 107.684 97.1016 101.231C97.9224 100.28 98.7455 99.2692 99.5051 98.258C102.162 94.6505 104.439 90.6032 106.146 86.2385C107.665 82.5063 108.74 78.6472 109.373 74.7246C109.754 72.3846 110.005 69.9812 110.069 67.7024L110.323 58.5308C110.316 58.5376 110.307 58.5399 110.296 58.5399C110.205 58.5399 109.967 58.295 109.627 57.8982L108.804 57.3925L95.0134 48.4726L89.2564 54.2295L82.7421 44.9944Z" fill="white"/>
<path fill-rule="evenodd" clip-rule="evenodd" d="M56.6785 62.8956C49.6564 62.8956 43.9629 67.1968 43.9629 72.5116C43.9629 77.7607 49.6564 82.0642 56.6785 82.0642C63.7007 82.0642 69.3306 77.7607 69.3306 72.5116C69.3306 67.1968 63.7007 62.8956 56.6785 62.8956Z" fill="#00BAC3"/>
<path fill-rule="evenodd" clip-rule="evenodd" d="M96.5938 62.8956C89.5739 62.8956 83.8804 67.1968 83.8804 72.5116C83.8804 77.7607 89.5739 82.0642 96.5938 82.0642C103.616 82.0642 109.246 77.7607 109.246 72.5116C109.246 67.1968 103.616 62.8956 96.5938 62.8956Z" fill="#00BAC3"/>
<path fill-rule="evenodd" clip-rule="evenodd" d="M97.1017 101.231C91.4083 107.684 84.3226 111.921 76.6044 111.921C68.8884 111.921 61.7393 107.747 56.1729 101.294V117.994L76.6679 136.466L97.1017 117.994V101.231Z" fill="white"/>
<path fill-rule="evenodd" clip-rule="evenodd" d="M56.6785 63.6552C63.2585 63.6552 68.6345 67.6412 68.6345 72.5116C68.6345 77.382 63.2585 81.3046 56.6785 81.3046C50.1007 81.3046 44.7224 77.382 44.7224 72.5116C44.7224 67.6412 50.1007 63.6552 56.6785 63.6552ZM56.6785 62.1995C49.2776 62.1995 43.269 66.8182 43.269 72.5116C43.269 78.2051 49.2776 82.8215 56.6785 82.8215C64.0793 82.8215 70.0901 78.2051 70.0901 72.5116C70.0901 66.8182 64.0793 62.1995 56.6785 62.1995Z" fill="#2A2D32"/>
<path fill-rule="evenodd" clip-rule="evenodd" d="M96.594 63.6552C103.174 63.6552 108.55 67.6412 108.55 72.5116C108.55 77.382 103.174 81.3046 96.594 81.3046C90.0162 81.3046 84.6402 77.382 84.6402 72.5116C84.6402 67.6412 90.0162 63.6552 96.594 63.6552ZM96.594 62.1995C89.1932 62.1995 83.1846 66.8182 83.1846 72.5116C83.1846 78.2051 89.1932 82.8215 96.594 82.8215C103.997 82.8215 110.006 78.2051 110.006 72.5116C110.006 66.8182 103.997 62.1995 96.594 62.1995Z" fill="#2A2D32"/>
<path fill-rule="evenodd" clip-rule="evenodd" d="M76.6047 64.9838C72.24 64.9838 68.5713 68.6525 68.5713 73.0807C68.5713 73.4594 68.8887 73.7768 69.2674 73.7768C69.7095 73.7768 70.027 73.4594 70.027 73.0807C70.027 69.4756 73.063 66.4372 76.6047 66.4372C80.1487 66.4372 83.1848 69.4756 83.1848 73.0807C83.1848 73.4594 83.4999 73.7768 83.9443 73.7768C84.3229 73.7768 84.6404 73.4594 84.6404 73.0807C84.6404 68.6525 80.9695 64.9838 76.6047 64.9838Z" fill="#2A2D32"/>
<path fill-rule="evenodd" clip-rule="evenodd" d="M76.6047 24.3089C95.9638 24.3089 111.777 39.6796 112.473 58.8482L95.3925 47.9035C95.2768 47.8151 95.1317 47.7674 94.9843 47.7674C94.8143 47.7674 94.6442 47.8309 94.5081 47.967L89.3203 53.0913L83.3752 44.6135C83.2278 44.3686 82.967 44.2756 82.7086 44.2756C82.6337 44.2756 82.5589 44.2847 82.4886 44.2983L43.7115 58.1522L42.2558 58.5943C42.2558 58.6578 42.1288 58.6578 42.1288 58.6578C42.0654 58.7213 42.0654 58.7213 42.0042 58.7213L40.7389 59.1634C41.308 39.8701 57.1844 24.3089 76.6047 24.3089ZM76.6047 22.8532C55.9827 22.8532 39.2197 39.6161 39.2197 60.2382C39.2197 60.4921 39.3467 60.6826 39.5372 60.8073C39.6619 60.9343 39.8524 60.9343 39.9793 60.9343H40.231L42.5732 60.1135C42.6367 60.1135 42.6367 60.05 42.6979 60.05C42.6979 60.05 42.7614 60.05 42.7614 59.9865L82.4886 45.8787L88.6242 54.6717C88.7512 54.8622 89.0051 54.9891 89.1934 54.9891C89.3838 54.9891 89.6378 54.9256 89.7625 54.7987L95.1407 49.4226L112.854 60.8708C112.978 60.9343 113.105 60.9343 113.232 60.9343H113.296C113.674 60.9343 113.992 60.6191 113.992 60.2382C113.992 60.1747 113.992 60.1135 113.992 60.05C113.865 39.4891 97.1655 22.8532 76.6047 22.8532Z" fill="#2A2D32"/>
<path fill-rule="evenodd" clip-rule="evenodd" d="M96.3421 103.128V117.994C96.3421 118.374 96.6573 118.753 97.1017 118.753H107.666C128.984 118.753 147.202 134.883 149.921 155.886H149.86L149.606 155.696C149.415 155.569 149.227 155.442 149.1 155.317C148.783 155.19 148.531 155.063 148.277 154.936C148.277 154.873 148.213 154.873 148.15 154.873C147.962 154.748 147.771 154.685 147.581 154.621H147.517C147.012 154.431 146.633 154.304 146.125 154.177H145.937C145.81 154.116 145.683 154.116 145.556 154.116C145.114 153.989 144.672 153.989 144.103 153.989H82.0461L77.3639 135.96C77.3004 135.643 76.9853 135.453 76.6678 135.453C76.3526 135.453 76.0352 135.643 75.9717 135.96L71.1014 153.989H30.4264V132.543C30.4264 132.165 30.1112 131.847 29.6668 131.847H14.8017C22.7716 123.497 33.9068 118.753 45.5454 118.753H56.1728C56.5514 118.753 56.8688 118.374 56.8688 117.994V103.192C62.7505 109.328 69.7091 112.681 76.6043 112.681C83.563 112.681 90.3947 109.391 96.3421 103.128ZM97.1584 100.512C96.9316 100.512 96.6777 100.593 96.5326 100.788C92.356 105.532 85.5243 111.225 76.6043 111.225C69.6457 111.225 62.5623 107.493 56.6784 100.788C56.5514 100.618 56.37 100.535 56.1864 100.535C56.0957 100.535 56.005 100.555 55.9188 100.598C55.6036 100.661 55.4132 100.977 55.4132 101.294V117.234H45.5454C32.7663 117.234 20.6856 122.803 12.3348 132.417C12.1443 132.607 12.0808 132.986 12.2713 133.24C12.3778 133.503 12.6136 133.634 12.8721 133.634C12.9243 133.634 12.9787 133.63 13.0309 133.618C13.5365 133.491 13.9786 133.43 14.423 133.367C14.9922 133.303 15.4343 133.303 15.9399 133.303H28.9707V154.685C28.9707 155.127 29.2881 155.442 29.6668 155.442H71.6704C72.0514 155.442 72.3031 155.254 72.43 154.873L76.6678 139.06L80.7174 154.873C80.8444 155.254 81.096 155.442 81.477 155.442H144.103C144.608 155.442 144.987 155.505 145.304 155.569C145.431 155.569 145.556 155.569 145.683 155.632H145.874C146.252 155.696 146.57 155.823 146.948 155.95L147.139 156.013C147.266 156.075 147.39 156.138 147.454 156.138C147.517 156.202 147.581 156.202 147.581 156.202C147.835 156.329 148.087 156.456 148.34 156.646C148.467 156.707 148.656 156.834 148.783 156.898C148.846 156.961 148.973 157.025 149.037 157.088C149.479 157.403 149.86 157.784 150.302 158.226C150.429 158.417 150.68 158.48 150.871 158.48C151.25 158.48 151.63 158.163 151.63 157.721C151.63 157.657 151.567 157.594 151.567 157.53C149.606 134.947 130.376 117.234 107.666 117.234H97.859V101.231C97.859 100.913 97.6708 100.661 97.3534 100.535C97.2944 100.519 97.2264 100.512 97.1584 100.512Z" fill="#2A2D32"/>
<path fill-rule="evenodd" clip-rule="evenodd" d="M76.6676 139.06L80.5267 153.989H72.6838L76.6676 139.06ZM76.6676 135.453C76.3524 135.453 76.035 135.643 75.9715 135.96L70.9741 154.494C70.9106 154.748 70.9741 155 71.1011 155.127C71.2281 155.317 71.4821 155.442 71.6702 155.442H81.4767C81.9189 155.442 82.2341 155.127 82.2341 154.685C82.2341 154.558 82.1729 154.431 82.1094 154.367L77.4272 135.96C77.3002 135.643 77.0485 135.453 76.6676 135.453Z" fill="#2A2D32"/>
<path fill-rule="evenodd" clip-rule="evenodd" d="M144.103 155.442C144.608 155.442 144.987 155.505 145.304 155.569C145.431 155.569 145.556 155.569 145.937 155.632C146.252 155.696 146.57 155.823 146.948 155.95C147.139 156.013 147.329 156.075 147.517 156.138C147.517 156.202 147.581 156.202 147.581 156.265C147.835 156.328 148.087 156.455 148.341 156.646C148.594 156.771 148.783 156.898 149.037 157.088C149.542 157.467 149.921 157.848 150.302 158.226C151.567 159.682 152.327 161.516 152.388 163.414C152.388 163.478 152.388 163.541 152.451 163.541C152.451 163.602 152.451 163.729 152.451 163.793V191.058H30.4264V155.442H144.103ZM29.6668 153.989C29.2881 153.989 28.9707 154.304 28.9707 154.685V191.754C28.9707 192.197 29.2881 192.512 29.6668 192.512H153.147C153.592 192.512 153.907 192.197 153.907 191.754V163.793C153.907 163.666 153.907 163.478 153.907 163.351C153.78 161.072 152.896 158.922 151.44 157.279C150.998 156.771 150.492 156.328 149.921 155.886C149.606 155.696 149.352 155.505 149.1 155.381C148.783 155.19 148.531 155.063 148.277 154.936C148.214 154.873 148.214 154.873 148.15 154.873C147.898 154.748 147.708 154.685 147.454 154.621C147.012 154.431 146.633 154.304 146.189 154.24C146.001 154.177 145.81 154.115 145.556 154.115C144.987 153.989 144.418 153.989 144.103 153.989H29.6668Z" fill="#2A2D32"/>
<path fill-rule="evenodd" clip-rule="evenodd" d="M28.9706 133.303V191.058H1.45343V147.662C1.45343 140.262 7.0199 134.124 14.423 133.366C14.9921 133.366 15.4343 133.303 15.9399 133.303H28.9706ZM15.9399 131.847C15.4343 131.847 14.8651 131.847 14.296 131.911C6.13562 132.734 0 139.502 0 147.662V191.754C0 192.197 0.315186 192.512 0.693848 192.512H29.6667C30.1111 192.512 30.4263 192.197 30.4263 191.754V132.607C30.4263 132.165 30.1111 131.847 29.6667 131.847H15.9399Z" fill="#2A2D32"/>
<path fill-rule="evenodd" clip-rule="evenodd" d="M152.451 169.55V191.058H124.934V178.848H137.903C144.291 178.848 149.921 175.053 152.451 169.55ZM153.147 162.276C152.769 162.276 152.451 162.591 152.451 163.033C152.451 163.16 152.451 163.224 152.451 163.287C152.388 163.287 152.388 163.351 152.388 163.414C152.199 171.069 145.746 177.393 137.903 177.393H124.238C123.796 177.393 123.48 177.71 123.48 178.089V191.754C123.48 192.197 123.796 192.512 124.238 192.512H153.147C153.592 192.512 153.907 192.197 153.907 191.754V163.033C153.907 162.591 153.592 162.276 153.147 162.276Z" fill="#2A2D32"/>
<path fill-rule="evenodd" clip-rule="evenodd" d="M55.8554 118.817L75.151 136.085L49.1507 144.5V118.817H55.8554ZM48.3911 117.361C47.949 117.361 47.6338 117.678 47.6338 118.121V145.511C47.6338 145.765 47.7585 146.019 47.949 146.143C48.0759 146.207 48.2029 146.27 48.3911 146.27C48.4546 146.27 48.5181 146.27 48.5815 146.207L76.8583 137.099C77.1123 137.035 77.3005 136.845 77.3005 136.593C77.364 136.339 77.3005 136.022 77.1123 135.897L56.615 117.551C56.488 117.424 56.3633 117.361 56.1729 117.361H48.3911Z" fill="#2A2D32"/>
<path fill-rule="evenodd" clip-rule="evenodd" d="M104.122 118.817V144.5L78.06 136.085L97.3534 118.817H104.122ZM97.1017 117.361C96.9113 117.361 96.7208 117.424 96.5938 117.551L76.1622 135.897C75.9718 136.022 75.8471 136.339 75.9083 136.593C75.9718 136.845 76.1622 137.035 76.4162 137.099L104.629 146.207C104.693 146.27 104.754 146.27 104.881 146.27C105.008 146.27 105.199 146.207 105.326 146.143C105.514 146.019 105.577 145.765 105.577 145.511V118.121C105.577 117.678 105.262 117.361 104.881 117.361H97.1017Z" fill="#2A2D32"/>
<path fill-rule="evenodd" clip-rule="evenodd" d="M82.4883 45.8787L88.6239 54.6717C88.7509 54.8622 89.0048 54.9891 89.193 54.9891C89.3835 54.9891 89.6374 54.9256 89.7621 54.7987L95.1404 49.4226L108.425 57.9617L109.182 58.4673C109.309 58.6578 109.436 58.7848 109.563 58.9095L109.309 67.7025C109.309 69.7907 109.058 72.006 108.677 74.5976C108.677 74.5976 108.677 74.5976 108.677 74.6611C107.981 78.5837 106.906 82.3794 105.45 85.9846C103.743 90.2858 101.53 94.2719 98.9361 97.8136C98.113 98.8906 97.3534 99.8384 96.5326 100.788C92.3561 105.532 85.5243 111.225 76.6044 111.225C69.6457 111.225 62.5623 107.493 56.6784 100.788C55.7942 99.7114 54.9711 98.7002 54.275 97.8136C51.6811 94.2719 49.5316 90.2858 47.8219 85.9211C46.3686 82.5063 45.355 78.7742 44.6589 74.9786C44.6589 74.9151 44.6589 74.8516 44.5954 74.8516C44.1533 71.9425 43.9016 69.3486 43.9016 66.8817L43.142 59.8595L82.4883 45.8787ZM82.7082 44.2756C82.6334 44.2756 82.5586 44.2847 82.4883 44.2983L43.7112 58.1522L42.2555 58.5943C42.2555 58.6578 42.1285 58.6578 42.1285 58.6578C42.0038 58.7213 41.8768 58.7848 41.8133 58.8482C41.6864 59.0364 41.5594 59.2269 41.6228 59.4809L42.446 66.9452C42.446 69.4756 42.6976 72.1942 43.2055 75.169C43.2055 75.2303 43.2055 75.2937 43.2055 75.2937C43.9016 79.2163 44.9764 82.9485 46.432 86.4902C48.2029 90.9819 50.4159 95.0315 53.1368 98.7002C53.8329 99.6479 54.6537 100.661 55.6037 101.736C61.7393 108.822 69.2036 112.681 76.6044 112.681C84.1322 112.681 91.3448 108.885 97.6709 101.736C98.4917 100.788 99.2512 99.8384 100.074 98.7002C102.795 95.095 105.072 90.9819 106.779 86.4902C108.298 82.8215 109.436 78.9012 110.132 74.8516V74.7881C110.575 72.1942 110.765 69.8542 110.829 67.7025L111.017 58.5308C111.017 58.2156 110.892 57.9617 110.575 57.8347C110.511 57.7712 110.384 57.583 110.196 57.3926C110.132 57.3926 110.132 57.3291 110.069 57.2656L95.3921 47.9035C95.2765 47.8151 95.1313 47.7674 94.984 47.7674C94.8139 47.7674 94.6438 47.8309 94.5078 47.967L89.32 53.0913L83.3749 44.6135C83.2275 44.3686 82.9667 44.2756 82.7082 44.2756Z" fill="#2A2D32"/>
<path fill-rule="evenodd" clip-rule="evenodd" d="M76.2895 0.775452C73.8226 0.775452 71.4191 1.15637 69.0768 1.78897C68.256 2.04065 67.687 2.80023 67.6235 3.6868C67.56 4.57108 66.9274 5.26718 66.1043 5.52112C62.1817 6.53238 57.3113 8.68414 54.7809 10.8336C54.3387 11.1511 54.0848 11.6567 54.0848 12.2258V12.3528C54.0213 12.9854 53.7061 13.4911 53.2005 13.8697C44.2805 20.3862 39.3467 37.7818 39.3467 48.79C39.3467 50.0552 39.5371 52.4587 39.5371 52.4587C42.1288 52.0143 44.7862 51.6356 47.5706 51.257C56.4882 50.1164 66.1678 49.4861 76.2895 49.4861C86.4747 49.4861 96.152 50.1164 105.072 51.257C106.21 51.4451 111.588 52.2047 113.105 52.4587C113.105 52.4587 113.296 50.0552 113.296 48.79C113.296 37.7818 108.362 20.3862 99.442 13.8697C98.9363 13.4911 98.6189 12.9854 98.5554 12.3528V12.2258C98.5554 11.6567 98.2402 11.1511 97.8593 10.8336C95.3312 8.68414 90.4585 6.53238 86.5381 5.52112C85.7151 5.26718 85.0825 4.57108 85.019 3.6868C84.9555 2.80023 84.3864 2.04065 83.5633 1.78897C81.2234 1.15637 78.8199 0.775452 76.2895 0.775452Z" fill="#F99615"/>
<path fill-rule="evenodd" clip-rule="evenodd" d="M76.6679 49.4861C66.485 49.4861 56.8054 50.1165 47.8854 51.257C45.1033 51.6356 42.446 52.0143 39.8521 52.4587L55.4767 66.1221C56.2363 66.7547 57.2476 67.1333 58.2611 67.1333H96.4691C97.5439 67.1333 98.6187 66.7547 99.3782 65.9951L113.423 52.4587C111.903 52.2047 106.527 51.4452 105.387 51.257C96.4691 50.1165 86.7896 49.4861 76.6679 49.4861Z" fill="#F99615"/>
<path fill-rule="evenodd" clip-rule="evenodd" d="M76.6362 1.5033C78.9943 1.5033 81.3501 1.85019 83.6901 2.5463C84.1957 2.67325 84.5766 3.17889 84.5766 3.6868C84.7013 4.88852 85.5244 5.96326 86.7261 6.21722C90.7122 7.22849 95.3922 9.44147 97.6709 11.3393C97.986 11.5932 98.113 11.9084 98.1765 12.2893V12.4163C98.24 13.2371 98.6187 13.9967 99.3148 14.4388C108.171 20.8918 112.853 38.5414 112.853 48.79C112.853 49.5473 112.79 50.8125 112.726 51.6356C110.638 51.257 106.527 50.6878 105.514 50.5609C96.3422 49.3591 86.5991 48.7265 76.6679 48.7265C66.6732 48.7265 56.9324 49.3591 47.7585 50.5609C45.1033 50.876 42.6976 51.257 40.5482 51.6356C40.4847 50.8125 40.4211 49.5473 40.4211 48.79C40.4211 38.5414 45.1033 20.8918 53.9598 14.4388C54.6537 13.9967 55.0346 13.2371 55.0981 12.4163V12.2893C55.1616 11.9084 55.2863 11.5932 55.6037 11.3393C57.8802 9.44147 62.5624 7.22849 66.5462 6.21722C67.7502 5.96326 68.571 4.88852 68.698 3.6868C68.698 3.17889 69.0766 2.67325 69.5845 2.5463C71.9245 1.85019 74.2803 1.5033 76.6362 1.5033ZM76.6452 0C74.1533 0 71.6705 0.365051 69.2036 1.0929C68.0654 1.47153 67.2423 2.42157 67.1788 3.62329C67.1788 4.19241 66.8002 4.63458 66.231 4.82504C61.9933 5.89978 57.1206 8.17624 54.6537 10.2645C54.0845 10.7067 53.7059 11.4028 53.6424 12.1624V12.2893C53.6424 12.668 53.3884 13.0489 53.1368 13.2371C43.4572 20.3228 38.9043 38.6048 38.9043 48.79C38.9043 50.0552 39.0925 52.4587 39.0925 52.5222C39.0925 52.7738 39.2194 52.9643 39.4099 53.0913C39.5369 53.1548 39.6616 53.2183 39.8521 53.2183H39.979C42.319 52.7738 44.9764 52.3952 47.949 52.0143C57.0594 50.8125 66.7367 50.2434 76.6679 50.2434C86.5379 50.2434 96.2152 50.8125 105.326 52.0143C106.464 52.1412 111.776 52.9643 113.296 53.2183C113.486 53.2183 113.738 53.2183 113.865 53.0913C114.055 52.9643 114.18 52.7738 114.18 52.5222C114.18 52.4587 114.37 50.0552 114.37 48.79C114.37 38.6048 109.815 20.2592 100.201 13.2371C99.8839 13.0489 99.6322 12.668 99.6322 12.2893V12.1624C99.5687 11.4028 99.1877 10.7067 98.6187 10.2645C96.1517 8.17624 91.2813 5.89978 87.0435 4.82504C86.5379 4.63458 86.0935 4.19241 86.0935 3.62329C86.03 2.42157 85.2092 1.47153 84.1322 1.0929C81.6335 0.365051 79.1348 0 76.6452 0Z" fill="#2A2D32"/>
<path fill-rule="evenodd" clip-rule="evenodd" d="M76.6676 50.2434C86.5376 50.2434 96.2149 50.8126 105.325 52.0143C106.21 52.1413 109.69 52.6469 111.84 52.9643L98.8723 65.426C98.2396 66.0586 97.3531 66.4373 96.4688 66.4373H58.2608C57.3742 66.4373 56.5512 66.1221 55.9185 65.5529L41.4956 52.9643C43.4569 52.6469 45.6087 52.3317 47.9486 52.0143C57.059 50.8126 66.7363 50.2434 76.6676 50.2434ZM76.6676 48.7266C66.6728 48.7266 56.9321 49.3592 47.7581 50.5609C44.7221 50.9395 42.1282 51.3205 39.7247 51.7626C39.4096 51.8261 39.2191 52.0143 39.1556 52.2682C39.0286 52.5857 39.1556 52.8373 39.3461 53.0278L54.9708 66.6912C55.8551 67.4508 57.059 67.8929 58.2608 67.8929H96.4688C97.734 67.8929 98.9992 67.3873 99.8835 66.5007L113.928 53.0278C114.118 52.8373 114.243 52.5222 114.118 52.2682C114.055 52.0143 113.864 51.8261 113.547 51.7626C112.03 51.5087 106.652 50.6879 105.513 50.5609C96.3418 49.3592 86.5988 48.7266 76.6676 48.7266Z" fill="#2A2D32"/>
<path fill-rule="evenodd" clip-rule="evenodd" d="M53.4523 13.1124C53.0736 13.1736 52.7562 13.4911 52.8197 13.9332L55.6675 44.2348C55.6675 44.6135 55.9827 44.9309 56.3636 44.9309H56.4271C56.8692 44.8674 57.1209 44.4865 57.1209 44.1078L54.2753 13.8062C54.2119 13.3641 53.8967 13.1124 53.4523 13.1124Z" fill="#2A2D32"/>
<path fill-rule="evenodd" clip-rule="evenodd" d="M67.1787 4.38062C66.8 4.44409 66.4849 4.76154 66.4849 5.20367L69.3304 43.6657C69.3939 44.1078 69.7091 44.3618 70.09 44.3618H70.1535C70.5322 44.3618 70.8496 43.9808 70.7861 43.6022L67.9383 5.07672C67.9383 4.63458 67.5596 4.38062 67.1787 4.38062Z" fill="#2A2D32"/>
<path fill-rule="evenodd" clip-rule="evenodd" d="M99.7864 13.0399C99.4417 13.0399 99.1197 13.3346 99.063 13.6815L96.4056 44.0444C96.3422 44.4253 96.6573 44.804 97.0383 44.804H97.1017C97.4804 44.804 97.7978 44.55 97.8591 44.1713L100.58 13.8062C100.58 13.4276 100.328 13.049 99.8838 13.049C99.8521 13.0421 99.8181 13.0399 99.7864 13.0399Z" fill="#2A2D32"/>
<path fill-rule="evenodd" clip-rule="evenodd" d="M86.0594 4.37384C85.7148 4.37384 85.3928 4.66861 85.3339 5.01324L82.6787 43.5387C82.6787 43.9809 82.9939 44.2983 83.3748 44.3618H83.436C83.817 44.3618 84.1321 44.0444 84.1321 43.6657L86.853 5.14023C86.853 4.76157 86.5378 4.38065 86.1569 4.38065C86.1252 4.37613 86.0912 4.37384 86.0594 4.37384Z" fill="#2A2D32"/>
</svg>
