<svg width="86" height="75" viewBox="0 0 86 75" fill="none" xmlns="http://www.w3.org/2000/svg">
<path fill-rule="evenodd" clip-rule="evenodd" d="M63.0923 9.6073C66.5288 9.6073 69.8077 10.9687 72.2067 13.4451C74.6859 15.844 76.0444 19.1229 76.0444 22.5623C76.0444 26.0016 74.6859 29.2776 72.2067 31.6766C69.8077 34.1558 66.5288 35.5172 63.0923 35.5172C59.653 35.5172 56.3741 34.1558 53.9751 31.6766C51.4959 29.2776 50.1374 26.0016 50.1374 22.5623C50.1374 19.1229 51.4959 15.844 53.9751 13.4451C56.3741 10.9687 59.653 9.6073 63.0923 9.6073ZM64.5312 1.8515C63.7315 1.8515 63.25 2.4104 63.1726 3.05243L63.0121 4.57147C62.9319 6.01028 61.8915 7.12808 60.4526 7.36884C59.5727 7.52933 58.773 7.77008 57.8932 8.008C57.5607 8.13409 57.2082 8.19427 56.8614 8.19427C55.8754 8.19427 54.9067 7.71564 54.3764 6.8902L53.4162 5.60904C53.2213 5.31668 52.8459 5.14471 52.459 5.14471C52.2096 5.14471 51.9545 5.2135 51.7367 5.37112L50.937 5.84979C50.3781 6.25104 50.2979 7.04782 50.6963 7.60959L52.5364 10.2464C52.7771 10.6477 52.6969 11.1263 52.3758 11.4474L52.2153 11.6078C51.258 12.568 50.4584 13.6056 49.739 14.8065C49.2173 15.781 48.1684 16.3341 47.062 16.3341C46.8098 16.3341 46.5519 16.3055 46.2996 16.2453L44.9411 15.844C44.8321 15.8211 44.7261 15.8096 44.6258 15.8096C44.0411 15.8096 43.5567 16.1794 43.422 16.7239L43.1812 17.6038C43.0207 17.9248 43.101 18.243 43.2615 18.564C43.422 18.885 43.7401 19.0426 44.0611 19.1229L45.3395 19.5241C46.698 19.8423 47.6582 21.1234 47.6582 22.482C47.6582 23.4422 47.7384 24.3221 47.8989 25.2794C48.1397 26.6408 47.4174 27.9993 46.1391 28.5582L44.9411 29.2002C44.62 29.2776 44.3793 29.5184 44.299 29.8394C44.1414 30.1575 44.1414 30.5588 44.299 30.7995L44.7003 31.6766C44.9325 32.0836 45.3767 32.3645 45.8468 32.3645C46.0244 32.3645 46.2051 32.3243 46.3799 32.2383L47.5779 31.6766C47.9906 31.496 48.4292 31.4072 48.8648 31.4072C49.7734 31.4072 50.6619 31.7998 51.258 32.5565C51.5762 32.8775 51.8972 33.1956 52.138 33.5166C52.5364 33.8376 52.8573 34.1558 53.1755 34.3965C54.2962 35.3567 54.6946 36.8758 54.0554 38.1541L53.4965 39.355C53.336 39.6731 53.336 39.9941 53.4162 40.3151C53.5768 40.6333 53.8146 40.874 54.1357 41.0345L54.9353 41.4329C55.0987 41.4931 55.2678 41.5247 55.434 41.5247C55.9155 41.5247 56.377 41.2696 56.6148 40.7938L57.1737 39.5155C57.6667 38.4579 58.7788 37.7127 59.9654 37.7127C60.1259 37.7127 60.2893 37.727 60.4526 37.7557C61.3326 37.9162 62.2124 37.9936 63.0923 37.9936H63.25C64.6916 37.9936 65.8897 38.9537 66.2107 40.3151L66.6091 41.6737C66.7467 42.2183 67.2884 42.588 67.8387 42.588C67.9361 42.588 68.0335 42.5765 68.1281 42.5536L69.008 42.3128C69.6472 42.1523 70.0484 41.4329 69.888 40.7938L69.4896 39.355C69.1686 37.9936 69.7275 36.5547 70.9284 35.8354C72.0462 35.1962 73.0866 34.3965 73.9665 33.5166L74.2072 33.1956C74.3849 33.0179 74.64 32.9148 74.8865 32.9148C75.0785 32.9148 75.2649 32.9778 75.4053 33.1183L78.1253 34.9554C78.3345 35.1074 78.581 35.179 78.8274 35.179C79.2316 35.179 79.6357 34.9841 79.8822 34.6373L80.3637 33.9179C80.7621 33.3561 80.6819 32.5565 80.123 32.1581L78.7644 31.2782C77.6437 30.4785 77.1651 29.0397 77.6437 27.6783C77.8845 26.8787 78.1253 26.0016 78.2857 25.202C78.5237 23.7603 79.6443 22.7227 81.0831 22.6425L82.6824 22.482C83.0035 22.4018 83.3216 22.2412 83.5624 22.0034C83.7228 21.7626 83.8031 21.4416 83.8031 21.1234L83.7228 20.1633C83.6426 19.5241 83.161 19.0426 82.5219 19.0426L80.6819 19.2031C80.5758 19.2175 80.4698 19.2232 80.3637 19.2232C79.1284 19.2232 78.0077 18.3834 77.5635 17.2054C77.2453 16.4058 76.8441 15.6061 76.4457 14.8867C75.7263 13.6858 75.9642 12.0865 76.9244 11.1263L78.1253 9.92831C78.3631 9.68753 78.4434 9.36942 78.4434 9.0484C78.4434 8.72739 78.3631 8.40924 78.1253 8.16849L77.4861 7.52933C77.2453 7.28857 76.9244 7.16821 76.6062 7.16821C76.2852 7.16821 75.9642 7.28857 75.7263 7.52933L74.5254 8.72739C73.9464 9.3092 73.1296 9.62735 72.3098 9.62735C71.7768 9.62735 71.2408 9.49265 70.7679 9.20889C70.0484 8.80765 69.2488 8.40924 68.4491 8.08823C67.0906 7.60959 66.2909 6.32843 66.4486 4.96988L66.5288 3.29031C66.6091 2.65115 66.1305 2.01202 65.411 1.93176L64.5312 1.8515Z" fill="#F99615"/>
<path fill-rule="evenodd" clip-rule="evenodd" d="M52.1378 57.0247C54.3762 57.0247 56.2134 58.8647 56.2134 61.1032C56.2134 63.3416 54.3762 65.1817 52.1378 65.1817C49.8964 65.1817 48.0592 63.3416 48.0592 61.1032C48.0592 58.8647 49.8964 57.0247 52.1378 57.0247ZM58.0563 49.6844C57.6407 49.6844 57.2337 49.8994 57.0131 50.229L56.0557 51.9086C55.557 52.8286 54.5596 53.3732 53.4476 53.3732C53.3043 53.3732 53.1609 53.3646 53.0148 53.3474C52.8285 53.3245 52.6422 53.3159 52.453 53.3159C52.0002 53.3159 51.5502 53.3703 51.0973 53.4276C50.9655 53.4448 50.8336 53.4506 50.7047 53.4506C49.5782 53.4506 48.5522 52.8401 47.9789 51.9086L47.0991 50.3895C46.9414 50.0227 46.543 49.8249 46.1274 49.8249C45.9125 49.8249 45.6918 49.8794 45.4998 49.9883C45.259 50.1488 45.0182 50.3895 44.9409 50.7077C44.8606 51.0287 44.9409 51.3497 45.0985 51.5876L45.9784 53.2672C46.6176 54.2273 46.5402 55.5858 45.8179 56.546C45.4195 57.1049 45.0985 57.6667 44.8606 58.2256C44.4594 59.4236 43.3416 60.2233 42.0604 60.2233H40.3005C39.5812 60.2233 39.1025 60.785 39.1025 61.4242C39.1025 62.0633 39.5812 62.6222 40.3005 62.6222H42.3011C43.4992 62.6222 44.5396 63.2643 45.0985 64.382C45.3392 64.9409 45.6602 65.4225 46.0587 65.9011C46.8583 66.9415 46.9385 68.3 46.2994 69.4207L45.3392 71.1003C45.0182 71.6592 45.1787 72.3786 45.7405 72.6996C45.9326 72.8085 46.1503 72.8629 46.371 72.8629C46.7924 72.8629 47.2079 72.6652 47.4172 72.2983L48.4576 70.3809C49.0566 69.4064 50.077 68.8532 51.2578 68.8532C51.3352 68.8532 51.4155 68.8561 51.4957 68.8589C51.7766 68.8991 52.0575 68.9191 52.3355 68.9191C52.6164 68.9191 52.8973 68.8991 53.1753 68.8589C53.3129 68.8418 53.4476 68.8332 53.5851 68.8332C54.657 68.8332 55.7175 69.3777 56.2134 70.3006L57.2538 72.1378C57.463 72.5075 57.8815 72.7025 58.2999 72.7025C58.5206 72.7025 58.7413 72.648 58.9333 72.5391C59.4922 72.2181 59.6528 71.4987 59.3317 70.9398L58.2139 69.0194C57.655 67.9819 57.7324 66.7007 58.4547 65.6632C58.7728 65.2619 59.0939 64.703 59.3317 64.2215C59.8132 63.0235 60.931 62.3041 62.132 62.3041H64.1296C64.7717 62.3041 65.3306 61.7423 65.3306 61.1032C65.3306 60.464 64.7717 59.9051 64.1296 59.9051H62.132C60.931 59.9051 59.8132 59.1857 59.3317 58.0651C59.0939 57.5062 58.7728 56.9473 58.3745 56.4658C57.655 55.4254 57.5748 54.147 58.1337 53.0264L59.0939 51.4271C59.2543 51.1892 59.2543 50.8682 59.1741 50.55C59.0939 50.229 58.9333 49.9883 58.6124 49.8306C58.4375 49.7274 58.2455 49.6844 58.0563 49.6844Z" fill="#B6F0F4"/>
<path fill-rule="evenodd" clip-rule="evenodd" d="M24.5482 35.4369C25.5886 35.4369 26.5488 35.8353 27.2681 36.6349C28.0678 37.3543 28.4662 38.3145 28.4662 39.3549C28.4662 40.3924 28.0678 41.4328 27.2681 42.1523C26.5488 42.8716 25.5485 43.2328 24.5396 43.2328C23.5307 43.2328 22.5104 42.8716 21.7509 42.1523C21.0314 41.4328 20.6302 40.3924 20.6302 39.3549C20.6302 38.3145 21.0314 37.3543 21.7509 36.6349C22.4702 35.8353 23.5106 35.4369 24.5482 35.4369ZM24.5482 33.5968C23.0291 33.5968 21.5101 34.1557 20.4697 35.2764C19.3519 36.3942 18.793 37.8358 18.793 39.3549C18.793 40.9542 19.3519 42.393 20.4697 43.4334C21.5101 44.5512 23.0291 45.1903 24.5482 45.1903C26.0673 45.1903 27.5089 44.5512 28.6267 43.4334C29.7474 42.393 30.3063 40.9542 30.3063 39.3549C30.3063 37.8358 29.7474 36.3942 28.6267 35.2764C27.5089 34.1557 26.0673 33.5968 24.5482 33.5968Z" fill="#2A2D32"/>
<path fill-rule="evenodd" clip-rule="evenodd" d="M25.2679 16.7239C25.9099 16.7239 26.4688 17.1252 26.5491 17.7643L27.1882 21.8429C27.3487 23.0409 28.1484 24.0011 29.2662 24.3221C30.1461 24.56 31.026 24.9612 31.8256 25.3596C32.2269 25.5946 32.697 25.7036 33.1756 25.7036C33.8376 25.7036 34.5112 25.4943 35.0242 25.1217L38.3834 22.6425C38.584 22.5078 38.8248 22.4447 39.0684 22.4447C39.4066 22.4447 39.7505 22.568 39.9827 22.803L41.1005 23.9208C41.582 24.3221 41.582 25.0415 41.261 25.5201L38.7817 28.8792C38.0624 29.8394 37.9821 31.0374 38.5439 32.0779C38.9423 32.8775 39.3435 33.7574 39.5814 34.6373C39.9024 35.6749 40.8625 36.5547 42.0606 36.7153L46.1392 37.3544C46.7783 37.4347 47.1796 37.9936 47.1796 38.6356V40.1546C47.1796 40.7938 46.7783 41.2724 46.1392 41.3527L42.0606 42.0721C40.8625 42.2326 39.9024 43.0322 39.5814 44.1529C39.3435 45.0328 38.9423 45.8325 38.5439 46.6321C37.9821 47.6696 38.1426 48.9508 38.7817 49.9081L41.261 53.2672C41.582 53.7487 41.582 54.4681 41.1005 54.8665L40.0629 55.9872C39.7993 56.205 39.4639 56.3283 39.1343 56.3283C38.8649 56.3283 38.5983 56.2451 38.3834 56.0674L35.0242 53.6685C34.4653 53.2472 33.8233 53.0465 33.1785 53.0465C32.7198 53.0465 32.2584 53.1469 31.8256 53.3475C31.026 53.8261 30.1461 54.1471 29.2662 54.3879C28.2286 54.7863 27.3487 55.7464 27.1882 56.8671L26.5491 61.023C26.4688 61.5848 25.9099 62.0634 25.3481 62.0634H23.7488C23.1899 62.0634 22.631 61.5848 22.5508 61.023L21.9116 56.8671C21.6709 55.7464 20.8712 54.7863 19.7505 54.3879C18.9509 54.1471 18.071 53.8261 17.2742 53.3475C16.873 53.187 16.3943 53.0265 15.9128 53.0265C15.2737 53.0265 14.5543 53.2672 14.0756 53.6685L10.6362 56.0674C10.4184 56.2451 10.1719 56.3283 9.91968 56.3283C9.61304 56.3283 9.3006 56.205 9.03693 55.9872L7.99652 54.8665C7.51788 54.4681 7.43762 53.7487 7.836 53.2672L10.3152 49.9081C10.9544 48.9508 11.1149 47.6696 10.556 46.7095C10.1547 45.8325 9.75635 45.0328 9.51556 44.1529C9.11719 43.0322 8.2373 42.2326 7.03638 42.0721L2.88043 41.4329C2.31873 41.2724 1.84003 40.7938 1.84003 40.1546V38.6356C1.84003 37.9936 2.31873 37.5149 2.88043 37.3544L7.03638 36.7153C8.15704 36.5547 9.11719 35.7551 9.51556 34.6373C9.75635 33.7574 10.0773 32.8775 10.556 32.0779C11.0346 31.1177 10.9544 29.8394 10.235 28.8792L7.836 25.5201C7.43762 25.0415 7.51788 24.3221 7.91626 23.9208L9.03693 22.803C9.25763 22.5823 9.57288 22.4591 9.89392 22.4591C10.1547 22.4591 10.4184 22.5422 10.6362 22.7227L13.9954 25.1217C14.5514 25.4943 15.2192 25.7036 15.8842 25.7036C16.3628 25.7036 16.8386 25.5946 17.2742 25.3596C18.071 24.9612 18.8707 24.6402 19.7505 24.3221C20.8712 24.0011 21.6709 23.0409 21.8314 21.8429L22.5508 17.7643C22.631 17.1252 23.1097 16.7239 23.7488 16.7239H25.2679ZM23.7488 14.8867C22.2298 14.8867 20.9515 15.9243 20.7108 17.4433L19.9913 21.6021C19.9913 22.0034 19.6703 22.4018 19.1917 22.5623C18.2315 22.8833 17.2742 23.2816 16.3943 23.7603C16.2281 23.8291 16.0475 23.8663 15.8669 23.8663C15.609 23.8663 15.3482 23.789 15.1132 23.6027L11.754 21.2037C11.2152 20.8082 10.5617 20.6047 9.914 20.6047C9.12006 20.6047 8.32898 20.9056 7.75861 21.5219L6.638 22.5623C5.51733 23.6829 5.43707 25.3596 6.31696 26.6408L8.71594 29.9999C9.03693 30.3983 9.03693 30.8769 8.8764 31.2782C8.39777 32.1581 7.99652 33.1183 7.67841 34.0755C7.59814 34.4768 7.1969 34.795 6.7182 34.8752L2.63971 35.5172C1.12067 35.7551 0 37.1165 0 38.6356V40.1546C0 41.7539 1.12067 43.0322 2.63971 43.273L6.7182 43.9121C7.1969 43.9924 7.59814 44.3105 7.75861 44.7118C7.99652 45.672 8.39777 46.6321 8.8764 47.5092C9.11719 47.9104 9.03693 48.3891 8.7962 48.7903L6.31696 52.1494C5.43707 53.4277 5.51733 55.1073 6.638 56.2251L7.75861 57.2655C8.32898 57.8817 9.12006 58.1826 9.914 58.1826C10.5617 58.1826 11.2152 57.982 11.754 57.5865L15.1132 55.1875C15.3482 54.9984 15.609 54.921 15.8669 54.921C16.0475 54.921 16.2281 54.9611 16.3943 55.027C17.2742 55.5057 18.2315 55.907 19.1917 56.2251C19.6703 56.3053 19.9913 56.7066 20.0716 57.1852L20.7108 61.2638C20.9515 62.7828 22.2298 63.9035 23.7488 63.9035H25.3481C26.8672 63.9035 28.1484 62.7828 28.3862 61.2638L29.0283 57.1852C29.1085 56.7066 29.4266 56.3053 29.8279 56.2251C30.8655 55.907 31.7454 55.5057 32.7055 55.027C32.8861 54.9554 33.081 54.9153 33.2701 54.9153C33.5052 54.9153 33.7288 54.9755 33.9064 55.1073L37.343 57.5865C37.8245 57.9849 38.4636 58.2256 39.1028 58.2256C39.9827 58.2256 40.7823 57.9046 41.3412 57.2655L42.4619 56.2251C43.4995 55.1073 43.6599 53.4277 42.78 52.1494L40.3008 48.7903C40.0629 48.3891 39.9827 47.9104 40.2234 47.5092C40.6218 46.6321 41.0231 45.672 41.3412 44.7118C41.5017 44.3105 41.9001 43.9924 42.3014 43.9121L46.4601 43.1927C47.9792 42.952 49.097 41.6737 49.097 40.1546V38.6356C49.097 37.0363 47.9792 35.7551 46.4601 35.5172L42.3014 34.8752C41.9001 34.795 41.5017 34.4768 41.3412 34.0755C41.0231 33.1183 40.6218 32.1581 40.2234 31.1979C39.9827 30.7995 40.0629 30.318 40.3008 29.9999L42.78 26.6408C43.6599 25.3596 43.4995 23.6829 42.4619 22.5623L41.3412 21.5219C40.7709 20.9056 39.9798 20.6047 39.1716 20.6047C38.5123 20.6047 37.8388 20.8082 37.2627 21.2037L33.9838 23.6027C33.7516 23.7402 33.4937 23.8262 33.2386 23.8262C33.0552 23.8262 32.8718 23.7832 32.7055 23.6829C31.7454 23.2816 30.7852 22.8833 29.8279 22.5623C29.4266 22.4018 29.1085 22.0034 29.0283 21.6021L28.3862 17.4433C28.1484 15.9243 26.8672 14.8867 25.2679 14.8867H23.7488Z" fill="#2A2D32"/>
<path fill-rule="evenodd" clip-rule="evenodd" d="M63.0927 11.5276C66.0505 11.5276 68.8479 12.6454 70.9287 14.7262C73.0067 16.8042 74.1273 19.6044 74.1273 22.5623C74.1273 25.5201 73.0067 28.3203 70.9287 30.3983C68.8479 32.4762 66.0505 33.5969 63.0927 33.5969C60.132 33.5969 57.3346 32.4762 55.2567 30.3983C53.1758 28.3203 51.9778 25.5201 51.9778 22.5623C51.9778 19.6044 53.1758 16.8042 55.2567 14.7262C57.3346 12.6454 60.132 11.5276 63.0927 11.5276ZM63.0927 9.6073C59.6533 9.6073 56.3745 10.9687 53.8952 13.4451C51.4963 15.844 50.1377 19.1229 50.1377 22.5623C50.1377 26.0016 51.4963 29.2776 53.8952 31.6766C56.3745 34.1558 59.6533 35.5172 63.0927 35.5172C66.5292 35.5172 69.808 34.1558 72.207 31.6766C74.6862 29.2776 76.0447 26.0016 76.0447 22.5623C76.0447 19.1229 74.6862 15.844 72.207 13.4451C69.808 10.9687 66.5292 9.6073 63.0927 9.6073Z" fill="#2A2D32"/>
<path fill-rule="evenodd" clip-rule="evenodd" d="M64.5311 1.8515L65.411 1.93176C66.1304 2.01202 66.6091 2.65115 66.5288 3.29031L66.4485 4.96988C66.2909 6.32843 67.0906 7.60959 68.4491 8.08823C69.2488 8.40924 70.0484 8.80765 70.7678 9.20889C71.2407 9.49265 71.7767 9.62735 72.3098 9.62735C73.1295 9.62735 73.9464 9.3092 74.5253 8.72739L75.7262 7.52933C75.924 7.28857 76.245 7.16821 76.5746 7.16821C76.9042 7.16821 77.2453 7.28857 77.4861 7.52933L78.1252 8.16849C78.3631 8.40924 78.4434 8.72739 78.4434 9.0484C78.4434 9.36942 78.3631 9.68753 78.1252 9.92831L76.9243 11.1263C75.9642 12.0865 75.7262 13.6858 76.4457 14.8867C76.844 15.6061 77.2453 16.4058 77.5635 17.2054C78.0077 18.3834 79.1283 19.2232 80.3636 19.2232C80.4697 19.2232 80.5757 19.2175 80.6818 19.2031L82.5218 19.0426C83.161 19.0426 83.6425 19.5241 83.7228 20.1633L83.803 21.1234C83.803 21.4416 83.7228 21.7626 83.482 22.0034C83.3215 22.2412 83.0034 22.4018 82.6824 22.482L81.0831 22.5623C79.6443 22.7227 78.5236 23.7603 78.2857 25.1217C78.1252 26.0016 77.8845 26.8787 77.6437 27.6783C77.165 29.0397 77.6437 30.4785 78.7643 31.2782L80.1229 32.1581C80.6818 32.5565 80.7621 33.3561 80.3636 33.9179L79.8821 34.6373C79.6357 34.9841 79.2316 35.179 78.8274 35.179C78.5809 35.179 78.3345 35.1074 78.1252 34.9554L75.4053 33.1183C75.2648 32.9778 75.0785 32.9148 74.8865 32.9148C74.64 32.9148 74.3849 33.0179 74.2072 33.1956L73.9664 33.5166C73.0865 34.3965 72.0461 35.1962 70.9283 35.8354C69.7274 36.5547 69.1685 37.9936 69.4896 39.2747L69.8879 40.7938C69.9682 41.1148 69.9682 41.4329 69.8077 41.7539C69.5698 41.9918 69.329 42.2326 69.008 42.3128L68.1281 42.5536H67.81C67.2482 42.5536 66.7696 42.1523 66.6091 41.6737L66.2107 40.3151C65.8896 38.9537 64.6916 37.9936 63.2499 37.9936H63.0923C62.2124 37.9936 61.3325 37.9162 60.4526 37.7557C60.2778 37.7242 60.1029 37.7098 59.931 37.7098C58.7559 37.7098 57.6609 38.3977 57.1737 39.5155L56.6148 40.7938C56.3769 41.2696 55.8725 41.5247 55.3996 41.5247C55.2362 41.5247 55.0785 41.4931 54.9352 41.4329L54.1356 41.0345C53.8146 40.874 53.5767 40.6333 53.4162 40.3151C53.3359 39.9941 53.3359 39.6731 53.4965 39.355L54.0554 38.1541C54.6143 36.8758 54.2961 35.3567 53.1755 34.3965C52.8573 34.1558 52.5363 33.8376 52.1379 33.5166C51.8971 33.1956 51.5762 32.8775 51.258 32.5565C50.6619 31.7998 49.7733 31.4072 48.8648 31.4072C48.4291 31.4072 47.9906 31.496 47.5779 31.6766L46.3798 32.2383C46.205 32.3243 46.0244 32.3645 45.8467 32.3645C45.3767 32.3645 44.9324 32.0836 44.7002 31.6766L44.299 30.7995C44.1414 30.4785 44.1414 30.1575 44.299 29.8394C44.3793 29.5184 44.62 29.2776 44.941 29.2002L46.1391 28.5582C47.4174 27.9993 48.1396 26.6408 47.8989 25.2794C47.7384 24.3221 47.6581 23.4422 47.6581 22.482C47.6581 21.1234 46.698 19.8423 45.3394 19.5241L44.0611 19.1229C43.7401 19.0426 43.422 18.8047 43.2615 18.564C43.1009 18.243 43.0207 17.9248 43.1812 17.6038L43.3417 16.7239C43.5452 16.1794 44.0382 15.8096 44.6229 15.8096C44.7261 15.8096 44.8321 15.8211 44.941 15.844L46.2996 16.2453C46.5375 16.2997 46.7753 16.3284 47.0132 16.3284C48.1368 16.3284 49.2087 15.7294 49.7389 14.8065C50.4584 13.6056 51.258 12.568 52.2153 11.6078L52.3758 11.4474C52.6968 11.1263 52.777 10.6477 52.5363 10.2464L50.6962 7.60959C50.2978 7.04782 50.3781 6.25104 50.937 5.84979L51.7366 5.29089C51.9344 5.17624 52.1637 5.12463 52.3901 5.12463C52.8028 5.12463 53.2098 5.29947 53.4162 5.60904L54.3763 6.8902C54.9066 7.71564 55.8754 8.19427 56.8613 8.19427C57.2081 8.19427 57.5607 8.13409 57.8931 8.008C58.773 7.77008 59.5727 7.52933 60.4526 7.36884C61.8914 7.12808 62.9318 6.01028 63.012 4.57147L63.1725 2.97217C63.2499 2.4104 63.7314 1.8515 64.5311 1.8515ZM64.4078 0C62.843 0 61.4844 1.22668 61.3325 2.81168L61.172 4.41098C61.0917 4.96988 60.6934 5.45139 60.1316 5.52878C59.1743 5.68927 58.2141 5.93002 57.254 6.25104C57.1221 6.31696 56.9846 6.34561 56.847 6.34561C56.483 6.34561 56.1276 6.13925 55.8954 5.84979L55.0155 4.57147C54.4136 3.71738 53.3732 3.24445 52.3443 3.24445C51.7338 3.24445 51.1262 3.41357 50.616 3.77182L49.8966 4.33072C48.4578 5.29089 48.1396 7.28857 49.0969 8.64713L50.5386 10.6477C49.6587 11.6078 48.8591 12.6454 48.1396 13.8463C47.9476 14.2246 47.5578 14.4539 47.1279 14.4539C47.0132 14.4539 46.8957 14.4396 46.7782 14.4052L45.4197 14.0068C45.176 13.9466 44.9296 13.9208 44.6859 13.9208C43.2586 13.9208 41.923 14.8781 41.5819 16.2453L41.3411 17.1252C41.1004 17.9248 41.2609 18.8047 41.6622 19.5241C42.0605 20.2435 42.6997 20.7222 43.4994 20.963L44.8608 21.284C45.4197 21.4416 45.818 21.9231 45.818 22.482C45.818 23.5224 45.8983 24.56 46.0588 25.6004C46.1391 26.1593 45.8983 26.6408 45.3394 26.8787L44.1414 27.4404C43.3417 27.8388 42.78 28.478 42.542 29.2002C42.2211 29.9999 42.3013 30.8769 42.6223 31.5992L43.0207 32.3989C43.5481 33.5138 44.7232 34.1988 45.9127 34.1988C46.3426 34.1988 46.7753 34.1071 47.1795 33.9179L48.3776 33.3561C48.5265 33.2816 48.6899 33.2472 48.8591 33.2472C49.2316 33.2472 49.6215 33.4249 49.8966 33.7574C50.1373 34.0755 50.5386 34.4768 50.8567 34.795C51.258 35.1962 51.5762 35.5172 51.9774 35.8354C52.456 36.2366 52.6166 36.8758 52.3758 37.3544L51.8169 38.5553C51.4156 39.355 51.4156 40.1546 51.7366 40.9543C51.9774 41.7539 52.5363 42.3128 53.3359 42.7112L54.1356 43.1125C54.5311 43.2787 54.9553 43.359 55.3766 43.359C56.5747 43.359 57.7613 42.7169 58.2944 41.5934L58.8533 40.3151C59.0682 39.8824 59.5411 39.5814 60.0399 39.5814C60.0972 39.5814 60.1545 39.5871 60.2118 39.5929C61.172 39.7534 62.1321 39.8336 63.0923 39.8336H63.2499C63.8117 39.8336 64.2903 40.2349 64.4509 40.7938L64.7718 42.1523C65.1702 43.5109 66.3711 44.471 67.81 44.471C68.0478 44.471 68.3689 44.3908 68.6096 44.3105L69.4896 44.0726C70.2892 43.9121 71.0086 43.3532 71.407 42.6339C71.8082 41.9116 71.8885 41.1148 71.728 40.3151L71.3267 38.7932C71.1662 38.3146 71.407 37.7557 71.8885 37.4347C73.0063 36.7955 74.0467 35.9958 75.0068 35.0357L77.0848 36.4745C77.615 36.85 78.2399 37.0277 78.8647 37.0277C79.842 37.0277 80.8165 36.5863 81.4041 35.7551L81.8827 34.9554C82.9231 33.5969 82.6021 31.6766 81.1633 30.639L79.8047 29.7591C79.4035 29.4381 79.1628 28.799 79.4035 28.3203C79.7245 27.3602 79.9624 26.4 80.1229 25.4398C80.2032 24.9612 80.6818 24.4797 81.2436 24.4797L82.8429 24.3221C83.6425 24.2418 84.4422 23.8405 84.9208 23.2014C85.4797 22.5623 85.7205 21.7626 85.6403 20.963L85.56 20.0028C85.4109 18.4178 84.1212 17.1911 82.499 17.1911C82.4015 17.1911 82.3012 17.1968 82.2037 17.2054L80.4439 17.3631C79.8821 17.3631 79.4838 17.0449 79.243 16.5634C78.9249 15.6864 78.5236 14.8065 78.045 13.9266C77.8042 13.4451 77.8845 12.8059 78.2857 12.4075L79.4035 11.2869C80.0427 10.6477 80.3636 9.92831 80.3636 9.0484C80.3636 8.24875 80.0427 7.4491 79.4035 6.8902L78.7643 6.25104C78.1653 5.64914 77.3657 5.35107 76.566 5.35107C75.7663 5.35107 74.9667 5.64914 74.3649 6.25104L73.1668 7.36884C72.9662 7.61819 72.6423 7.74429 72.3098 7.74429C72.1092 7.74429 71.9086 7.69846 71.728 7.60959C70.8481 7.12808 69.9682 6.72968 69.0883 6.32843C68.5294 6.17078 68.2084 5.60904 68.2886 5.13037L68.4491 3.45081C68.6096 1.77127 67.3285 0.252197 65.5715 0.0917053L64.6916 0.0114441C64.5942 0.00283813 64.4996 0 64.4078 0Z" fill="#2A2D32"/>
<path fill-rule="evenodd" clip-rule="evenodd" d="M52.1381 58.8648C53.3361 58.8648 54.3765 59.9052 54.3765 61.1033C54.3765 62.3042 53.3361 63.3417 52.1381 63.3417C50.9372 63.3417 49.8968 62.3042 49.8968 61.1033C49.8968 59.9052 50.9372 58.8648 52.1381 58.8648ZM52.1381 57.0248C49.8968 57.0248 48.0596 58.8648 48.0596 61.1033C48.0596 63.3417 49.8968 65.1818 52.1381 65.1818C54.3765 65.1818 56.2137 63.3417 56.2137 61.1033C56.2137 58.8648 54.3765 57.0248 52.1381 57.0248Z" fill="#2A2D32"/>
<path fill-rule="evenodd" clip-rule="evenodd" d="M58.0568 49.6845C58.2459 49.6845 58.4379 49.7275 58.6128 49.8307C58.9338 49.9884 59.0943 50.2291 59.1746 50.5501C59.2548 50.8683 59.2548 51.1893 59.0943 51.4272L58.1341 53.0265C57.495 54.1471 57.6555 55.4254 58.3749 56.4659C58.7733 56.9474 59.014 57.5063 59.3322 58.0652C59.8137 59.1858 60.9315 59.9052 62.1324 59.9052H64.1301C64.7721 59.9052 65.331 60.4641 65.331 61.1033C65.331 61.7424 64.7721 62.3042 64.1301 62.3042H62.1324C60.9315 62.3042 59.8137 63.0236 59.2548 64.2216C59.0943 64.7031 58.7733 65.262 58.4551 65.6633C57.7328 66.7008 57.6555 67.982 58.2144 69.0195L59.3322 70.9398C59.6532 71.4987 59.4927 72.2182 58.9338 72.5392C58.7418 72.6481 58.5211 72.7025 58.3004 72.7025C57.8819 72.7025 57.4634 72.5076 57.2542 72.1379L56.2138 70.3007C55.718 69.3778 54.6575 68.8333 53.5856 68.8333C53.448 68.8333 53.3133 68.8419 53.1757 68.859C52.8977 68.8992 52.6168 68.9192 52.3359 68.9192C52.0579 68.9192 51.777 68.8992 51.4962 68.859C51.4159 68.8562 51.3356 68.8533 51.2582 68.8533C50.0774 68.8533 49.0571 69.4065 48.458 70.381L47.4176 72.2984C47.2084 72.6653 46.7928 72.863 46.3715 72.863C46.1508 72.863 45.933 72.8086 45.7409 72.6997C45.1791 72.3787 45.0187 71.6593 45.3397 71.1004L46.2998 69.4208C46.939 68.3001 46.8587 66.9416 46.0591 65.9012C45.6606 65.4225 45.3397 64.941 45.0989 64.3821C44.54 63.2643 43.4996 62.6223 42.3016 62.6223H40.301C39.5816 62.6223 39.103 62.0634 39.103 61.4243C39.103 60.7851 39.5816 60.2234 40.301 60.2234H42.0608C43.2617 60.2234 44.3795 59.4237 44.861 58.2256C45.0989 57.6667 45.4199 57.105 45.8183 56.5461C46.5406 55.5859 46.618 54.2274 45.9788 53.2672L45.0989 51.5877C44.9413 51.3498 44.861 51.0288 44.9413 50.7078C45.0187 50.3896 45.2594 50.1489 45.5002 49.9884C45.6922 49.8795 45.9014 49.825 46.1107 49.825C46.5062 49.825 46.8903 50.0228 47.0995 50.3896L47.9794 51.9087C48.5526 52.8402 49.5787 53.4507 50.7051 53.4507C50.834 53.4507 50.9659 53.4449 51.0977 53.4277C51.5506 53.3704 52.0006 53.3159 52.4534 53.3159C52.6426 53.3159 52.8289 53.3246 53.0152 53.3475C53.1614 53.3647 53.3047 53.3733 53.448 53.3733C54.5601 53.3733 55.5574 52.8287 56.0562 51.9087L57.0135 50.2291C57.2341 49.8995 57.6412 49.6845 58.0568 49.6845ZM58.0682 47.8445C57.002 47.8445 55.953 48.3805 55.4142 49.3492L54.4568 50.9485C54.2476 51.2982 53.855 51.5246 53.4423 51.5246C53.3792 51.5246 53.319 51.5189 53.2559 51.5074C52.8575 51.4673 52.4362 51.4472 52.0264 51.4472C51.6165 51.4472 51.2181 51.4673 50.857 51.5074C50.7653 51.5218 50.6765 51.5275 50.5905 51.5275C50.149 51.5275 49.7793 51.3498 49.5787 50.9485L48.7791 49.5097C48.1857 48.541 47.1224 47.9706 46.0505 47.9706C45.5317 47.9706 45.0101 48.1024 44.54 48.3891C43.9009 48.7903 43.342 49.4295 43.1815 50.2291C42.9407 51.0288 43.0209 51.8284 43.4222 52.5478L44.3795 54.1471C44.6202 54.5484 44.6202 55.1073 44.2993 55.5057C43.8206 56.1477 43.4222 56.7869 43.1815 57.5865C42.9407 58.0652 42.5423 58.3862 42.0608 58.3862H40.301C38.5441 58.3862 37.1826 59.7447 37.1826 61.4243C37.1826 63.1038 38.5441 64.4624 40.301 64.4624H42.3016C42.7802 64.4624 43.1815 64.7834 43.4222 65.1818C43.7404 65.9012 44.0613 66.463 44.54 67.1021C44.861 67.5005 44.9413 68.0594 44.7005 68.4606L43.7404 70.1402C42.8605 71.579 43.342 73.4993 44.861 74.299C45.3397 74.6171 45.8183 74.7776 46.3801 74.7776C47.4176 74.7776 48.458 74.1385 49.0169 73.1783L50.1376 71.3383C50.2981 70.9398 50.6965 70.6991 51.178 70.6991L51.3385 70.7794C51.9777 70.7794 52.6971 70.7794 53.4164 70.6991C53.4795 70.6905 53.5397 70.6848 53.6028 70.6848C54.0155 70.6848 54.4053 70.9112 54.6145 71.258L55.6549 73.0981C56.2023 74.0296 57.3144 74.5856 58.3978 74.5856C58.8937 74.5856 59.3867 74.4681 59.8137 74.2187C61.2525 73.3388 61.8114 71.4987 60.9315 69.9797L59.8939 68.1396C59.6532 67.7412 59.6532 67.1823 59.9742 66.7811C60.3726 66.2222 60.6936 65.583 61.0117 64.941C61.1722 64.4624 61.6509 64.1414 62.1324 64.1414H64.1301C65.8096 64.1414 67.1711 62.7828 67.1711 61.1033C67.1711 59.4237 65.8096 58.0652 64.1301 58.0652H62.1324C61.6509 58.0652 61.1722 57.747 61.0117 57.2655C60.6936 56.6263 60.2924 55.907 59.8939 55.3481C59.5729 54.9468 59.4927 54.3879 59.7335 53.9866L60.6936 52.3873C61.092 51.6679 61.1722 50.8683 61.0117 50.0686C60.7739 49.269 60.2924 48.6298 59.5729 48.2314C59.1058 47.9706 58.5841 47.8445 58.0682 47.8445Z" fill="#2A2D32"/>
</svg>
