<svg width="68" height="67" viewBox="0 0 68 67" fill="none" xmlns="http://www.w3.org/2000/svg">
<path fill-rule="evenodd" clip-rule="evenodd" d="M4.87354 35.6041C4.87354 18.3746 18.8408 4.40726 36.0704 4.40726C44.3443 4.40726 52.2794 7.69406 58.1299 13.5446C63.9804 19.3951 67.2672 27.3302 67.2672 35.6041C67.2672 52.8336 53.2999 66.801 36.0704 66.801C18.8408 66.801 4.87354 52.8336 4.87354 35.6041Z" fill="#B6F0F4"/>
<path fill-rule="evenodd" clip-rule="evenodd" d="M1.4668 32.1968C1.4668 14.9673 15.4341 1 32.6636 1C40.9376 1 48.8726 4.2868 54.7231 10.1373C60.5737 15.9879 63.8605 23.9229 63.8605 32.1968C63.8605 49.4264 49.8932 63.3937 32.6636 63.3937C15.4341 63.3937 1.4668 49.4264 1.4668 32.1968Z" stroke="#2A2D32" stroke-width="2" stroke-miterlimit="10" stroke-linejoin="round" stroke-dasharray="2 6"/>
<path fill-rule="evenodd" clip-rule="evenodd" d="M30.4477 29.9359C30.3847 29.9359 30.3181 29.9507 30.2551 29.9729C29.9773 30.0804 29.8403 30.3951 29.9477 30.6692C30.2921 31.5617 31.3883 32.158 32.6623 32.158C33.94 32.158 35.0325 31.5617 35.3806 30.6692C35.488 30.3951 35.351 30.0804 35.0732 29.9729C35.0103 29.9507 34.9436 29.9359 34.8806 29.9359C34.6659 29.9359 34.4585 30.0655 34.377 30.2803C34.1733 30.8062 33.3437 31.0877 32.6623 31.0877C31.9846 31.0877 31.1513 30.8062 30.9513 30.2803C30.8662 30.0655 30.6625 29.9359 30.4477 29.9359Z" fill="#2A2D32"/>
<path fill-rule="evenodd" clip-rule="evenodd" d="M25.8109 18.8775V24.7697H24.0148V24.1586C24.0148 22.2143 24.6443 20.3811 25.8109 18.8775ZM28.1071 16.0481V24.7697H26.8849V17.2702C26.8849 17.0777 26.9775 16.8925 27.1293 16.7814L28.1071 16.0481ZM30.9772 15.6741V24.7697H29.181V16.237C29.7587 15.9851 30.3624 15.7963 30.9772 15.6741ZM33.2363 14.9334C33.2585 14.9334 33.2733 14.9519 33.2733 14.9741V15.0297V15.0334V16.6925C33.2733 16.9925 33.514 17.2295 33.8103 17.2295C34.1103 17.2295 34.3473 16.9925 34.3473 16.6925V15.6741C34.9658 15.7963 35.5657 15.9851 36.1472 16.237V24.7697H34.3473V18.9923C34.3473 18.696 34.1103 18.4516 33.8103 18.4516C33.514 18.4516 33.2733 18.696 33.2733 18.9923V24.7697H32.0511V14.9741C32.0511 14.9519 32.0697 14.9334 32.0882 14.9334H33.2363ZM37.2211 16.0481L38.1951 16.7814C38.3506 16.8925 38.4432 17.0777 38.4432 17.2702V24.7697H37.2211V16.0481ZM39.5173 18.8775C40.6838 20.3811 41.3134 22.2143 41.3134 24.1586V24.7697H39.5173V18.8775ZM40.1283 25.8436C40.7801 25.8436 41.3134 26.3732 41.3134 27.0324C41.3134 27.6731 40.7949 28.2027 40.1542 28.2138C40.1394 28.2138 40.1246 28.2101 40.1061 28.2101H40.0987C39.8209 28.2101 39.5839 28.4286 39.5654 28.7101C39.4321 30.447 38.6544 32.0543 37.3766 33.2505C36.0953 34.4467 34.4213 35.1059 32.6622 35.1059C30.9068 35.1059 29.2328 34.4467 27.9478 33.2505C26.6701 32.0543 25.8961 30.447 25.7628 28.7101C25.7405 28.4286 25.5073 28.2101 25.2258 28.2101H25.2184C25.1998 28.2101 25.1887 28.2138 25.1702 28.2138C24.5295 28.2027 24.0148 27.6731 24.0148 27.0324C24.0148 26.3732 24.5444 25.8436 25.1998 25.8436H28.681V27.0324C28.681 27.325 28.9218 27.5694 29.2181 27.5694C29.5143 27.5694 29.7551 27.325 29.7551 27.0324V25.8436H35.5694V27.0324C35.5694 27.325 35.8101 27.5694 36.1064 27.5694C36.4064 27.5694 36.6434 27.325 36.6434 27.0324V25.8436H40.1283ZM37.2952 34.7022V35.7392C37.2952 36.902 38.0099 37.9464 39.0839 38.376C37.7285 40.6202 35.3102 41.9942 32.6622 41.9942C30.0291 41.9942 27.5997 40.6165 26.2405 38.376C27.3182 37.9464 28.033 36.902 28.033 35.7392V34.7022C29.3773 35.6614 30.9883 36.1799 32.6622 36.1799C34.3398 36.1799 35.9471 35.6614 37.2952 34.7022ZM25.2369 38.7315V43.083C25.2369 43.3756 25.4628 43.6348 25.7554 43.6422C25.7628 43.6422 25.7702 43.6422 25.7739 43.6422C26.0701 43.6422 26.3109 43.4015 26.3109 43.1052V40.2573C27.9182 42.0238 30.2143 43.0682 32.6622 43.0682C35.1287 43.0682 37.4137 42.0276 39.0173 40.2573V44.8643H25.1998C24.7629 44.8643 24.3592 44.9903 24.0148 45.2051V39.1648L25.2369 38.7315ZM40.1135 38.7389L41.3134 39.1648V45.2051C40.969 44.9903 40.5616 44.8643 40.1283 44.8643H40.0912V38.7574C40.1024 38.75 40.1024 38.7463 40.1135 38.7389ZM32.0882 13.8594C31.6179 13.8594 31.2179 14.1557 31.0549 14.5667C30.3032 14.6927 29.5736 14.9037 28.8699 15.2037C28.7996 15.1297 28.7107 15.0704 28.6181 15.026C28.4737 14.9519 28.3144 14.9149 28.1589 14.9149C27.9441 14.9149 27.733 14.9852 27.5515 15.1186L26.4849 15.9222C26.0627 16.2333 25.8109 16.7369 25.8109 17.2591C23.9555 19.0997 22.9408 21.5366 22.9408 24.1586V24.7697H22.3297C22.0334 24.7697 21.7927 25.0104 21.7927 25.3066C21.7927 25.6066 22.0334 25.8436 22.3297 25.8436H23.2778C23.063 26.1917 22.9408 26.5954 22.9408 27.0287C22.9408 28.1175 23.7148 29.0286 24.7369 29.2434C24.9666 30.958 25.7443 32.5431 26.959 33.7838V35.7392C26.959 36.4836 26.4886 37.1539 25.785 37.3983L19.8558 39.4944C18.2634 40.0536 17.1968 41.5609 17.1968 43.246V49.9973C17.1968 50.2935 17.4375 50.5343 17.7338 50.5343C18.03 50.5343 18.2708 50.2935 18.2708 49.9973V43.246C18.2708 42.0164 19.0522 40.9165 20.2114 40.5054L22.9408 39.5426V49.9973C22.9408 50.2935 23.1778 50.5343 23.4778 50.5343C23.774 50.5343 24.0148 50.2935 24.0148 49.9973V47.1234C24.0148 46.4716 24.5444 45.942 25.1998 45.942H40.1283C40.7801 45.942 41.3134 46.4716 41.3134 47.1234V49.9973C41.3134 50.2935 41.5541 50.5343 41.8504 50.5343C42.1467 50.5343 42.3874 50.2935 42.3874 49.9973V39.5426L45.1168 40.5054C46.2723 40.9165 47.0537 42.0164 47.0537 43.246V49.9973C47.0537 50.2935 47.2944 50.5343 47.5944 50.5343C47.887 50.5343 48.1314 50.2935 48.1314 49.9973V43.246C48.1314 41.5609 47.0611 40.0536 45.4724 39.4944L39.5432 37.3983C38.8395 37.1539 38.3692 36.4836 38.3692 35.7392V33.7838C39.5839 32.5431 40.3579 30.958 40.5875 29.2434C41.6134 29.0286 42.3874 28.1175 42.3874 27.0287C42.3874 26.5954 42.2652 26.1917 42.0504 25.8436H42.9985C43.2947 25.8436 43.5355 25.6066 43.5355 25.3066C43.5355 25.0104 43.2947 24.7697 42.9985 24.7697H42.3874V24.1586C42.3874 21.5403 41.369 19.0997 39.5173 17.2591C39.5135 16.7369 39.2617 16.2333 38.8432 15.9222L37.7766 15.1186C37.5952 14.9852 37.3841 14.9149 37.1693 14.9149C37.01 14.9149 36.8545 14.9519 36.7101 15.026C36.61 15.0704 36.5286 15.1297 36.4545 15.2037C35.7546 14.9037 35.025 14.6927 34.2695 14.5667C34.1103 14.1557 33.7066 13.8594 33.2363 13.8594H32.0882Z" fill="#2A2D32"/>
<path fill-rule="evenodd" clip-rule="evenodd" d="M25.774 47.1642C25.474 47.1642 25.2407 47.4012 25.2407 47.7012C25.2407 47.9974 25.4814 48.2382 25.7777 48.2382C26.0777 48.2382 26.3147 47.9974 26.3147 47.7012C26.3147 47.4012 26.0777 47.1642 25.7777 47.1642H25.774Z" fill="#2A2D32"/>
<path fill-rule="evenodd" clip-rule="evenodd" d="M39.547 47.1642C39.2507 47.1642 39.0137 47.4012 39.0137 47.7012C39.0137 47.9974 39.2581 48.2382 39.5544 48.2382C39.847 48.2382 40.0914 47.9974 40.0914 47.7012C40.0914 47.4012 39.847 47.1642 39.5544 47.1642H39.547Z" fill="#2A2D32"/>
</svg>
